<svg width="40" height="31" viewBox="0 0 40 31" fill="none" xmlns="http://www.w3.org/2000/svg">
<path d="M3.03699 6.69385H9.21652C9.54011 6.69385 9.80246 6.43158 9.80246 6.10791C9.80246 5.78424 9.54011 5.52197 9.21652 5.52197H3.03699C2.71339 5.52197 2.45105 5.78424 2.45105 6.10791C2.45105 6.43158 2.71332 6.69385 3.03699 6.69385Z" fill="#09A66D"/>
<path d="M9.00481 9.51471H6.56372C6.24013 9.51471 5.97778 9.77698 5.97778 10.1006C5.97778 10.4243 6.24013 10.6866 6.56372 10.6866H9.00481C9.32841 10.6866 9.59075 10.4243 9.59075 10.1006C9.59075 9.77698 9.32841 9.51471 9.00481 9.51471Z" fill="#09A66D"/>
<path d="M0.585938 13.5779H6.56344C6.88703 13.5779 7.14937 13.3157 7.14937 12.992C7.14937 12.6683 6.88703 12.4061 6.56344 12.4061H0.585938C0.262344 12.4061 0 12.6683 0 12.992C0 13.3157 0.262344 13.5779 0.585938 13.5779Z" fill="#09A66D"/>
<path d="M9.80246 23.9656C9.80246 23.642 9.54011 23.3797 9.21652 23.3797H3.03699C2.71339 23.3797 2.45105 23.642 2.45105 23.9656C2.45105 24.2893 2.71339 24.5516 3.03699 24.5516H9.21652C9.54011 24.5516 9.80246 24.2893 9.80246 23.9656Z" fill="#09A66D"/>
<path d="M9.00481 19.387H6.56372C6.24013 19.387 5.97778 19.6493 5.97778 19.973C5.97778 20.2966 6.24013 20.5589 6.56372 20.5589H9.00481C9.32841 20.5589 9.59075 20.2966 9.59075 19.973C9.59075 19.6493 9.32841 19.387 9.00481 19.387Z" fill="#09A66D"/>
<path d="M7.14937 17.0815C7.14937 16.7579 6.88703 16.4956 6.56344 16.4956H0.585938C0.262344 16.4956 0 16.7579 0 17.0815C0 17.4052 0.262344 17.6675 0.585938 17.6675H6.56344C6.88703 17.6675 7.14937 17.4052 7.14937 17.0815Z" fill="#09A66D"/>
<path d="M24.9631 7.99228C25.2868 7.99228 25.5491 7.73001 25.5491 7.40634V6.51196C25.5491 6.18829 25.2868 5.92603 24.9631 5.92603C24.6395 5.92603 24.3772 6.18829 24.3772 6.51196V7.40634C24.3772 7.73001 24.6395 7.99228 24.9631 7.99228Z" fill="#09A66D"/>
<path d="M31.4058 8.59447C31.1769 8.36573 30.8059 8.36573 30.5771 8.59447L29.9447 9.22689C29.7159 9.4558 29.7159 9.82674 29.9447 10.0556C30.1737 10.2844 30.5445 10.2843 30.7734 10.0556L31.4058 9.42314C31.6345 9.19432 31.6345 8.82338 31.4058 8.59447Z" fill="#09A66D"/>
<path d="M32.593 14.4509C32.2693 14.4509 32.0071 14.7131 32.0071 15.0368C32.0071 15.3605 32.2693 15.6227 32.593 15.6227H33.4873C33.811 15.6227 34.0732 15.3605 34.0732 15.0368C34.0732 14.7131 33.811 14.4509 33.4873 14.4509H32.593Z" fill="#09A66D"/>
<path d="M30.7734 20.0179C30.5445 19.7892 30.1735 19.7892 29.9447 20.0179C29.7159 20.2468 29.7159 20.6178 29.9447 20.8466L30.5771 21.479C30.8061 21.7079 31.177 21.7078 31.4058 21.479C31.6346 21.2501 31.6346 20.8792 31.4058 20.6504L30.7734 20.0179Z" fill="#09A66D"/>
<path d="M24.3772 22.6672V23.5615C24.3772 23.8852 24.6395 24.1475 24.9631 24.1475C25.2868 24.1475 25.5491 23.8852 25.5491 23.5615V22.6672C25.5491 22.3436 25.2868 22.0813 24.9631 22.0813C24.6395 22.0813 24.3772 22.3436 24.3772 22.6672Z" fill="#09A66D"/>
<path d="M19.1534 20.0179L18.521 20.6504C18.2922 20.8793 18.2922 21.2502 18.521 21.479C18.7499 21.7079 19.1208 21.7078 19.3496 21.479L19.982 20.8466C20.2108 20.6177 20.2108 20.2468 19.982 20.0179C19.7532 19.7892 19.3822 19.7892 19.1534 20.0179Z" fill="#09A66D"/>
<path d="M16.4381 14.4509C16.1145 14.4509 15.8522 14.7131 15.8522 15.0368C15.8522 15.3605 16.1145 15.6227 16.4381 15.6227H17.3325C17.6561 15.6227 17.9184 15.3605 17.9184 15.0368C17.9184 14.7131 17.6561 14.4509 17.3325 14.4509H16.4381Z" fill="#09A66D"/>
<path d="M19.9821 9.22689L19.3497 8.59447C19.1209 8.36573 18.7499 8.36573 18.5211 8.59447C18.2923 8.82338 18.2923 9.19432 18.5211 9.42314L19.1535 10.0556C19.3824 10.2844 19.7534 10.2843 19.9821 10.0556C20.2109 9.82674 20.2109 9.4558 19.9821 9.22689Z" fill="#09A66D"/>
<path d="M28.1139 15.0368C28.1139 14.7132 27.8516 14.4509 27.528 14.4509H25.5491V10.1006C25.5491 9.77691 25.2868 9.51465 24.9631 9.51465C24.6395 9.51465 24.3772 9.77691 24.3772 10.1006V15.0368C24.3772 15.3605 24.6395 15.6228 24.9631 15.6228H27.528C27.8516 15.6228 28.1139 15.3605 28.1139 15.0368Z" fill="#09A66D"/>
<path d="M36.0735 14.9401C36.3965 14.9205 36.6424 14.6427 36.6228 14.3198C36.2501 8.1711 31.1285 3.35461 24.9631 3.35461C18.5215 3.35461 13.2809 8.59524 13.2809 15.0369C13.2809 21.4784 18.5215 26.7191 24.9631 26.7191C30.7341 26.7191 35.6584 22.4908 36.515 16.7849C36.5631 16.4649 36.3426 16.1666 36.0225 16.1185C35.7033 16.0706 35.4042 16.2909 35.3561 16.611C34.5866 21.7371 30.1603 25.5473 24.9631 25.5473C19.1677 25.5473 14.4528 20.8323 14.4528 15.037C14.4528 9.24157 19.1677 4.52657 24.9631 4.52657C30.51 4.52657 35.1178 8.85946 35.4531 14.3909C35.4726 14.7137 35.7501 14.9588 36.0735 14.9401Z" fill="#09A66D"/>
<path d="M24.9635 0C22.9025 0 20.8832 0.427578 19.0246 1.22719H8.6864C8.36281 1.22719 8.10046 1.48945 8.10046 1.81313C8.10046 2.1368 8.36281 2.39906 8.6864 2.39906H16.8202C15.7205 3.10688 14.708 3.96063 13.8154 4.94625C13.5982 5.18602 13.6165 5.55656 13.8563 5.77383C14.0962 5.99109 14.4666 5.97274 14.684 5.73289C17.3091 2.8343 21.0559 1.17188 24.9635 1.17188C32.6087 1.17188 38.8285 7.39164 38.8285 15.0368C38.8285 22.6819 32.6087 28.9017 24.9635 28.9017C17.3184 28.9017 11.0986 22.682 11.0986 15.0368C11.0986 12.3596 11.8634 9.76117 13.3101 7.52227C13.4857 7.25047 13.4077 6.88781 13.1359 6.71219C12.8641 6.53664 12.5015 6.61445 12.3258 6.88633C10.7562 9.31508 9.92671 12.1334 9.92671 15.0368C9.92671 20.331 12.6772 24.9945 16.824 27.6745H8.68648C8.36289 27.6745 8.10054 27.9368 8.10054 28.2605C8.10054 28.5841 8.36289 28.8464 8.68648 28.8464H19.0166C20.8416 29.6354 22.8523 30.0736 24.9636 30.0736C33.2548 30.0736 40.0004 23.3281 40.0004 15.0368C40.0004 6.74547 33.2548 0 24.9635 0Z" fill="#09A66D"/>
</svg>
