<svg width="81" height="81" viewBox="0 0 81 81" fill="none" xmlns="http://www.w3.org/2000/svg">
<circle cx="40.4697" cy="40.8934" r="40" fill="#F3FBF8"/>
<path d="M23.037 32.6938H29.2165C29.5401 32.6938 29.8025 32.4316 29.8025 32.1079C29.8025 31.7842 29.5401 31.522 29.2165 31.522H23.037C22.7134 31.522 22.451 31.7842 22.451 32.1079C22.451 32.4316 22.7133 32.6938 23.037 32.6938Z" fill="#09A66D"/>
<path d="M29.0048 35.5147H26.5637C26.2401 35.5147 25.9778 35.777 25.9778 36.1006C25.9778 36.4243 26.2401 36.6866 26.5637 36.6866H29.0048C29.3284 36.6866 29.5908 36.4243 29.5908 36.1006C29.5908 35.777 29.3284 35.5147 29.0048 35.5147Z" fill="#09A66D"/>
<path d="M20.5859 39.5779H26.5634C26.887 39.5779 27.1494 39.3157 27.1494 38.992C27.1494 38.6683 26.887 38.4061 26.5634 38.4061H20.5859C20.2623 38.4061 20 38.6683 20 38.992C20 39.3157 20.2623 39.5779 20.5859 39.5779Z" fill="#09A66D"/>
<path d="M29.8025 49.9656C29.8025 49.642 29.5401 49.3797 29.2165 49.3797H23.037C22.7134 49.3797 22.451 49.642 22.451 49.9656C22.451 50.2893 22.7134 50.5516 23.037 50.5516H29.2165C29.5401 50.5516 29.8025 50.2893 29.8025 49.9656Z" fill="#09A66D"/>
<path d="M29.0048 45.387H26.5637C26.2401 45.387 25.9778 45.6493 25.9778 45.973C25.9778 46.2966 26.2401 46.5589 26.5637 46.5589H29.0048C29.3284 46.5589 29.5908 46.2966 29.5908 45.973C29.5908 45.6493 29.3284 45.387 29.0048 45.387Z" fill="#09A66D"/>
<path d="M27.1494 43.0815C27.1494 42.7579 26.887 42.4956 26.5634 42.4956H20.5859C20.2623 42.4956 20 42.7579 20 43.0815C20 43.4052 20.2623 43.6675 20.5859 43.6675H26.5634C26.887 43.6675 27.1494 43.4052 27.1494 43.0815Z" fill="#09A66D"/>
<path d="M44.9631 33.9923C45.2868 33.9923 45.5491 33.73 45.5491 33.4063V32.512C45.5491 32.1883 45.2868 31.926 44.9631 31.926C44.6395 31.926 44.3772 32.1883 44.3772 32.512V33.4063C44.3772 33.73 44.6395 33.9923 44.9631 33.9923Z" fill="#09A66D"/>
<path d="M51.4058 34.5945C51.1769 34.3657 50.8059 34.3657 50.5771 34.5945L49.9447 35.2269C49.7159 35.4558 49.7159 35.8267 49.9447 36.0556C50.1737 36.2844 50.5445 36.2843 50.7734 36.0556L51.4058 35.4231C51.6345 35.1943 51.6345 34.8234 51.4058 34.5945Z" fill="#09A66D"/>
<path d="M52.593 40.4509C52.2693 40.4509 52.0071 40.7131 52.0071 41.0368C52.0071 41.3605 52.2693 41.6227 52.593 41.6227H53.4873C53.811 41.6227 54.0732 41.3605 54.0732 41.0368C54.0732 40.7131 53.811 40.4509 53.4873 40.4509H52.593Z" fill="#09A66D"/>
<path d="M50.7734 46.0179C50.5445 45.7892 50.1735 45.7892 49.9447 46.0179C49.7159 46.2468 49.7159 46.6178 49.9447 46.8466L50.5771 47.479C50.8061 47.7079 51.177 47.7078 51.4058 47.479C51.6346 47.2501 51.6346 46.8792 51.4058 46.6504L50.7734 46.0179Z" fill="#09A66D"/>
<path d="M44.3772 48.6672V49.5615C44.3772 49.8852 44.6395 50.1475 44.9631 50.1475C45.2868 50.1475 45.5491 49.8852 45.5491 49.5615V48.6672C45.5491 48.3436 45.2868 48.0813 44.9631 48.0813C44.6395 48.0813 44.3772 48.3436 44.3772 48.6672Z" fill="#09A66D"/>
<path d="M39.1534 46.0179L38.521 46.6504C38.2922 46.8793 38.2922 47.2502 38.521 47.479C38.7499 47.7079 39.1208 47.7078 39.3496 47.479L39.982 46.8466C40.2108 46.6177 40.2108 46.2468 39.982 46.0179C39.7532 45.7892 39.3822 45.7892 39.1534 46.0179Z" fill="#09A66D"/>
<path d="M36.4381 40.4509C36.1145 40.4509 35.8522 40.7131 35.8522 41.0368C35.8522 41.3605 36.1145 41.6227 36.4381 41.6227H37.3325C37.6561 41.6227 37.9184 41.3605 37.9184 41.0368C37.9184 40.7131 37.6561 40.4509 37.3325 40.4509H36.4381Z" fill="#09A66D"/>
<path d="M39.9821 35.2269L39.3497 34.5945C39.1209 34.3657 38.7499 34.3657 38.5211 34.5945C38.2923 34.8234 38.2923 35.1943 38.5211 35.4231L39.1535 36.0556C39.3824 36.2844 39.7534 36.2843 39.9821 36.0556C40.2109 35.8267 40.2109 35.4558 39.9821 35.2269Z" fill="#09A66D"/>
<path d="M48.1139 41.0368C48.1139 40.7132 47.8516 40.4509 47.528 40.4509H45.5491V36.1006C45.5491 35.7769 45.2868 35.5146 44.9631 35.5146C44.6395 35.5146 44.3772 35.7769 44.3772 36.1006V41.0368C44.3772 41.3605 44.6395 41.6228 44.9631 41.6228H47.528C47.8516 41.6228 48.1139 41.3605 48.1139 41.0368Z" fill="#09A66D"/>
<path d="M56.0735 40.9401C56.3965 40.9205 56.6424 40.6427 56.6228 40.3198C56.2501 34.1711 51.1285 29.3546 44.9631 29.3546C38.5215 29.3546 33.2809 34.5952 33.2809 41.0369C33.2809 47.4784 38.5215 52.7191 44.9631 52.7191C50.7341 52.7191 55.6584 48.4908 56.515 42.7849C56.5631 42.4649 56.3426 42.1666 56.0225 42.1185C55.7033 42.0706 55.4042 42.2909 55.3561 42.611C54.5866 47.7371 50.1603 51.5473 44.9631 51.5473C39.1677 51.5473 34.4528 46.8323 34.4528 41.037C34.4528 35.2416 39.1677 30.5266 44.9631 30.5266C50.51 30.5266 55.1178 34.8595 55.4531 40.3909C55.4726 40.7137 55.7501 40.9588 56.0735 40.9401V40.9401Z" fill="#09A66D"/>
<path d="M44.9635 26C42.9025 26 40.8832 26.4276 39.0246 27.2272H28.6864C28.3628 27.2272 28.1005 27.4895 28.1005 27.8131C28.1005 28.1368 28.3628 28.3991 28.6864 28.3991H36.8202C35.7205 29.1069 34.708 29.9606 33.8154 30.9463C33.5982 31.186 33.6165 31.5566 33.8563 31.7738C34.0962 31.9911 34.4666 31.9727 34.684 31.7329C37.3091 28.8343 41.0559 27.1719 44.9635 27.1719C52.6087 27.1719 58.8285 33.3916 58.8285 41.0368C58.8285 48.6819 52.6087 54.9017 44.9635 54.9017C37.3184 54.9017 31.0986 48.682 31.0986 41.0368C31.0986 38.3596 31.8634 35.7612 33.3101 33.5223C33.4857 33.2505 33.4077 32.8878 33.1359 32.7122C32.8641 32.5366 32.5015 32.6145 32.3258 32.8863C30.7562 35.3151 29.9267 38.1334 29.9267 41.0368C29.9267 46.331 32.6772 50.9945 36.824 53.6745H28.6865C28.3629 53.6745 28.1005 53.9368 28.1005 54.2605C28.1005 54.5841 28.3629 54.8464 28.6865 54.8464H39.0166C40.8416 55.6354 42.8523 56.0736 44.9636 56.0736C53.2548 56.0736 60.0004 49.3281 60.0004 41.0368C60.0004 32.7455 53.2548 26 44.9635 26V26Z" fill="#09A66D"/>
</svg>
